<?xml version="1.0" standalone="no"?>
<!DOCTYPE svg PUBLIC "-//W3C//DTD SVG 20010904//EN"
 "http://www.w3.org/TR/2001/REC-SVG-20010904/DTD/svg10.dtd">
<svg version="1.0" xmlns="http://www.w3.org/2000/svg"
 width="1024" height="1024" viewBox="0 0 1024 1024"
 preserveAspectRatio="xMidYMid meet">
<defs>
  <radialGradient id="bgGrad" cx="50%" cy="50%">
    <stop offset="0%" style="stop-color:#1a2332;stop-opacity:1" />
    <stop offset="100%" style="stop-color:#0a0e1a;stop-opacity:1" />
  </radialGradient>
</defs>
<rect width="1024" height="1024" fill="url(#bgGrad)"/>
<g transform="translate(0.000000,1024.000000) scale(0.100000,-0.100000)"
fill="#00D9FF" stroke="none">
<path d="M0 5120 l0 -5120 5120 0 5120 0 0 5120 0 5120 -5120 0 -5120 0 0
-5120z m2488 4386 c12 2 22 -1 22 -6 0 -6 7 -10 15 -10 8 0 15 -8 15 -17 0 -9
7 -25 17 -35 10 -12 12 -18 4 -18 -7 0 -10 -4 -6 -9 9 -16 -37 -57 -80 -72
-22 -7 -44 -18 -50 -24 -10 -10 -26 -14 -72 -19 -13 -1 -26 -5 -29 -9 -3 -3
-12 -3 -20 0 -8 3 -25 -2 -39 -11 -18 -12 -25 -13 -25 -4 0 9 -3 9 -10 -2 -5
-8 -19 -15 -32 -15 -13 0 -29 -4 -35 -8 -8 -5 -13 -4 -13 3 0 6 -5 8 -12 3 -7
-4 -21 -6 -32 -4 -12 2 -16 -1 -10 -10 5 -9 2 -10 -9 -6 -10 4 -37 3 -62 -2
-25 -5 -45 -5 -45 -1 0 4 -16 4 -35 0 -20 -4 -38 -4 -41 1 -3 6 -12 6 -22 0
-12 -7 -29 -2 -58 14 -23 13 -44 22 -46 20 -2 -2 -4 6 -3 18 1 25 33 94 48
104 6 3 7 1 3 -5 -4 -7 -3 -12 2 -12 6 0 12 7 16 15 3 8 14 15 25 15 10 0 22
7 25 16 3 8 10 12 16 9 5 -3 15 -3 22 1 13 8 52 16 81 15 9 0 17 4 17 8 0 5 9
11 20 14 11 3 20 0 20 -6 0 -9 2 -9 8 -1 4 6 23 14 42 17 19 3 46 9 60 13 14
3 40 7 58 8 17 0 32 4 32 8 0 3 11 5 25 3 14 -1 25 2 25 7 0 4 11 6 24 2 14
-3 32 -1 42 4 12 6 27 6 48 -3 17 -7 41 -11 54 -9z m77 -46 c3 -5 1 -10 -4
-10 -6 0 -11 5 -11 10 0 6 2 10 4 10 3 0 8 -4 11 -10z m1984 -305 c6 -3 11 -2
11 2 0 10 81 9 118 0 26 -7 54 -32 45 -41 -4 -3 -1 -6 5 -6 23 0 12 -31 -23
-67 -21 -22 -40 -33 -50 -30 -8 4 -15 3 -15 -1 0 -8 -63 -32 -95 -37 -11 -1
-27 -5 -36 -9 -9 -4 -33 -9 -55 -10 -21 -2 -40 -4 -41 -5 -2 -1 -5 0 -6 2 -2
1 -10 -3 -18 -10 -8 -6 -30 -11 -49 -12 -43 -1 -67 -5 -76 -13 -3 -4 -12 -4
-20 -1 -8 3 -14 1 -14 -3 0 -5 -17 -10 -37 -11 -127 -7 -191 -7 -186 0 2 4 -7
11 -20 16 -33 13 -42 54 -20 91 9 17 21 30 24 30 4 0 15 7 23 16 10 10 16 11
16 3 0 -9 4 -8 15 1 8 7 15 10 15 7 0 -4 21 3 48 14 26 11 59 21 74 21 15 1
26 4 24 7 -2 3 12 7 32 9 58 3 72 6 72 12 0 3 14 7 31 8 17 1 40 7 51 13 16 8
19 8 13 -1 -6 -9 -2 -9 14 -1 12 7 25 10 29 7 4 -3 13 -1 20 3 14 8 65 6 81
-4z m3246 -903 c179 -52 379 -172 496 -299 116 -127 206 -299 245 -468 18 -77
19 -175 19 -2470 l0 -2390 -27 -100 c-109 -394 -424 -681 -824 -750 -79 -14
-371 -15 -2619 -13 l-2530 3 -100 28 c-395 108 -677 409 -757 807 -10 52 -13
527 -13 2430 0 2267 1 2368 19 2445 21 92 70 218 116 295 129 218 355 399 585
465 152 45 66 43 2755 41 l2555 -2 80 -22z m-1684 -7119 c10 -3 16 -9 13 -14
-3 -5 -1 -9 4 -9 14 0 7 -41 -9 -50 -8 -5 -55 -8 -104 -7 l-90 2 0 30 c0 17 4
35 8 42 8 11 139 16 178 6z m-2980 -67 c9 -66 -4 -74 -109 -71 -88 3 -94 5
-99 33 -7 44 5 51 85 54 91 4 121 0 123 -16z m6574 -323 c23 -60 96 -133 157
-158 27 -11 48 -23 48 -26 0 -4 -21 -14 -47 -24 -60 -23 -133 -96 -158 -157
-11 -27 -22 -48 -25 -48 -3 0 -14 21 -25 48 -25 60 -97 132 -157 157 -27 11
-48 23 -48 26 0 4 21 14 47 24 60 23 133 96 158 157 11 27 23 48 26 48 4 0 14
-21 24 -47z m-2999 -239 c-3 -9 -6 -18 -6 -20 0 -3 -4 -3 -10 1 -11 7 -2 35
12 35 6 0 7 -7 4 -16z m88 1 c-4 -8 -11 -15 -16 -15 -6 0 -5 6 2 15 7 8 14 15
16 15 2 0 1 -7 -2 -15z m-124 -5 c0 -5 -4 -10 -10 -10 -5 0 -10 5 -10 10 0 6
5 10 10 10 6 0 10 -4 10 -10z m57 -12 c-3 -8 -6 -5 -6 6 -1 11 2 17 5 13 3 -3
4 -12 1 -19z m24 -21 c-10 -9 -11 -8 -5 6 3 10 9 15 12 12 3 -3 0 -11 -7 -18z"/>
<path d="M2510 8231 c-369 -79 -651 -343 -767 -716 l-28 -90 0 -2390 0 -2390
23 -89 c48 -188 130 -334 262 -467 158 -158 355 -259 567 -289 56 -8 792 -10
2608 -8 l2530 3 88 28 c229 71 407 192 539 367 62 81 140 239 170 345 l22 80
3 2370 c4 2607 7 2458 -57 2624 -122 316 -401 554 -729 621 -98 20 -125 20
-2623 19 -2393 0 -2527 -1 -2608 -18z m4661 -401 c207 -63 339 -240 341 -454
2 -244 -160 -439 -396 -476 -299 -47 -556 173 -556 475 0 217 126 391 328 456
78 25 202 25 283 -1z m-725 -520 c0 -20 -7 -20 -1601 -20 -925 0 -1617 -4
-1639 -10 -54 -12 -116 -58 -144 -105 -19 -33 -22 -52 -20 -105 3 -42 10 -75
22 -93 11 -15 177 -156 370 -312 350 -284 621 -505 814 -665 56 -46 102 -89
102 -96 0 -10 -329 -287 -990 -834 -209 -173 -290 -246 -290 -262 0 -37 49
-65 88 -50 11 4 150 116 309 249 158 132 442 369 631 526 337 281 343 286 373
275 17 -6 103 -68 190 -139 190 -152 233 -173 359 -173 75 -1 93 3 150 31 38
18 130 83 220 157 122 99 161 126 185 126 33 0 23 8 635 -495 692 -568 663
-546 689 -543 13 2 33 15 44 29 17 23 17 29 5 52 -7 13 -114 108 -238 209
-124 101 -342 281 -486 399 -143 118 -324 266 -401 329 -78 63 -142 120 -142
126 -1 9 293 257 917 773 l173 143 52 -16 c71 -22 151 -36 203 -36 34 0 44 -4
44 -16 0 -15 -10 -16 -87 -11 -49 3 -109 13 -136 22 -30 11 -52 14 -60 8 -121
-93 -1031 -850 -1035 -862 -3 -9 163 -149 658 -556 440 -362 555 -460 568
-488 27 -57 -21 -127 -87 -127 -35 0 -49 10 -327 241 -447 371 -955 784 -968
787 -7 2 -87 -57 -177 -129 -98 -80 -190 -144 -229 -163 -58 -27 -75 -31 -160
-31 -127 0 -161 17 -373 186 -93 74 -174 134 -182 134 -13 0 -211 -162 -868
-710 -197 -165 -373 -310 -390 -322 -44 -32 -110 -31 -142 1 -32 32 -42 89
-21 121 9 13 293 254 631 536 338 282 615 515 615 518 0 8 -51 51 -540 450
-697 570 -718 587 -740 630 -12 25 -20 60 -20 93 -1 39 -3 49 -10 36 -13 -21
-14 -2311 -1 -2354 5 -16 16 -46 26 -65 18 -34 18 -34 -2 -16 -11 9 -33 41
-49 70 l-29 52 0 413 0 412 -107 0 c-101 0 -108 1 -108 20 0 19 7 20 108 20
l108 0 2 180 2 180 -205 0 c-176 0 -205 2 -205 15 0 12 16 15 78 16 42 1 93 2
112 4 19 2 77 3 127 4 l92 1 3 533 3 534 30 49 c32 51 104 107 159 123 18 5
720 10 1671 10 1634 1 1641 1 1641 -19z m23 -147 c10 -10 33 -47 52 -82 18
-36 60 -92 91 -125 32 -33 54 -63 50 -66 -4 -4 -43 -35 -87 -71 -44 -35 -213
-174 -375 -309 -162 -135 -401 -334 -530 -441 -129 -108 -279 -234 -334 -280
-155 -132 -178 -148 -235 -165 -89 -27 -207 -2 -252 52 -12 15 -12 16 6 11
108 -31 187 -37 240 -17 37 14 55 29 735 594 311 258 613 510 673 559 59 49
107 91 107 94 0 3 -19 27 -43 53 -24 26 -58 75 -76 109 l-32 61 -1605 0
c-1777 0 -1651 5 -1674 -65 -12 -37 -27 -45 -36 -20 -15 39 32 109 79 118 12
2 743 5 1625 6 1514 1 1604 0 1621 -16z m641 -808 l0 -405 168 -1 c92 -1 172
-2 177 -4 6 -1 85 -3 178 -3 160 -2 167 -3 167 -22 0 -17 -7 -20 -52 -20 -79
0 -568 -7 -605 -9 l-33 -1 0 -552 0 -553 -24 -50 c-29 -61 -65 -97 -131 -127
l-50 -23 -1870 0 -1870 0 -42 22 c-54 29 -64 45 -21 32 20 -5 764 -10 1904
-10 l1870 -1 51 26 c60 30 115 91 131 145 9 28 12 298 12 994 0 967 0 963 33
966 4 1 7 -181 7 -404z m530 30 c0 -25 -1 -25 -84 -25 -85 0 -103 7 -92 35 4
12 25 15 91 15 84 0 85 0 85 -25z m-5475 -1045 l0 -25 -135 0 -135 0 -3 28 -3
28 138 -3 138 -3 0 -25z m655 -740 c0 -18 -7 -20 -85 -20 -78 0 -85 2 -85 20
0 18 7 20 85 20 78 0 85 -2 85 -20z m2213 -319 c-2 -6 4 -11 12 -11 13 0 15
-16 13 -102 l-3 -103 -300 0 -300 0 -3 -52 -3 -53 214 0 c245 0 211 12 326
-112 l71 -77 0 -96 0 -96 -91 -94 -92 -95 -313 0 c-262 0 -314 2 -314 14 0 8
-7 16 -15 20 -12 4 -15 25 -15 101 l0 95 305 0 305 0 0 55 0 55 -204 0 -203 0
-102 105 -101 105 0 85 0 84 86 90 86 91 257 2 c332 4 387 2 384 -11z m-2463
-1 c0 -5 6 -10 14 -10 12 0 14 -52 12 -322 l-1 -323 180 0 180 0 3 333 2 332
101 0 c74 0 104 -4 115 -14 12 -12 14 -73 14 -350 l0 -336 -96 -100 -97 -100
-212 0 -213 0 -101 107 -101 107 0 343 0 343 100 0 c60 0 100 -4 100 -10z
m995 -93 c50 -55 145 -166 213 -245 l122 -144 0 246 0 246 101 0 c74 0 104 -4
115 -14 12 -12 14 -86 14 -450 l0 -436 -85 0 -85 0 -151 178 c-263 308 -274
321 -281 321 -5 1 -8 -112 -8 -249 l0 -251 -102 3 c-76 2 -102 6 -101 16 2 6
-4 12 -12 12 -13 0 -15 55 -15 435 l0 435 93 -1 92 0 90 -102z m2385 93 c0 -5
7 -10 15 -10 12 0 15 -18 15 -100 l0 -100 -52 -1 c-29 0 -163 -1 -298 -2
l-245 -2 -3 -52 -3 -53 185 0 c152 0 186 -3 186 -14 0 -8 7 -16 15 -20 12 -4
15 -25 15 -101 l0 -95 -200 0 -200 0 0 -55 0 -55 290 0 c251 0 290 -2 290 -15
0 -8 5 -15 10 -15 6 0 10 -40 10 -100 l0 -100 -400 0 c-349 0 -400 2 -400 15
0 8 -7 15 -15 15 -13 0 -15 55 -15 435 l0 435 400 0 c260 0 400 -3 400 -10z
m508 -230 c113 -129 208 -236 213 -238 5 -2 9 103 9 237 l0 241 101 0 c74 0
104 -4 115 -14 12 -12 14 -86 14 -450 l0 -436 -89 0 -89 0 -74 88 c-40 48
-136 161 -213 251 l-140 163 -3 -251 -2 -251 -98 0 c-134 0 -130 -6 -132 202
-1 89 -2 284 -1 431 l1 268 92 -3 92 -3 204 -235z m1308 226 c10 -11 14 -41
14 -110 l0 -96 -140 0 -140 0 0 -340 0 -340 -100 0 c-82 0 -100 3 -100 15 0 8
-7 15 -15 15 -13 0 -15 23 -17 143 -1 78 -3 205 -4 282 -2 77 -3 159 -4 183
l0 42 -120 0 c-100 0 -120 3 -120 15 0 8 -7 15 -15 15 -12 0 -15 17 -15 95 l0
95 381 0 c316 0 383 -2 395 -14z m-4677 -1146 l109 -121 -5 -232 -5 -232 -96
-97 -97 -98 -302 0 c-263 0 -303 2 -303 15 0 8 -4 15 -10 15 -7 0 -10 152 -10
435 l0 435 305 0 304 0 110 -120z m945 18 l96 -102 0 -103 0 -104 -95 -97
c-52 -53 -95 -99 -95 -102 0 -3 47 -68 104 -145 l103 -140 -120 -3 c-144 -3
-127 -15 -273 183 l-99 134 -67 1 -68 0 0 -165 0 -165 -89 0 c-80 0 -91 2
-115 25 l-26 24 0 431 0 430 324 0 324 0 96 -102z m874 20 c44 -46 96 -103
116 -126 l36 -44 0 -324 0 -324 -95 0 c-130 0 -135 5 -135 140 l0 100 -190 0
-189 0 -3 -122 -3 -123 -94 0 c-67 0 -96 4 -99 13 -2 6 -10 12 -18 12 -12 0
-14 52 -14 327 l0 328 112 112 113 113 191 0 191 0 81 -82z m1046 67 c3 -8 12
-15 21 -15 12 0 15 -17 15 -100 l0 -100 -305 0 -305 0 0 -55 0 -55 185 0 c158
0 185 -2 185 -15 0 -8 7 -15 15 -15 12 0 15 -18 15 -100 l0 -100 -200 0 -200
0 0 -170 0 -170 -100 0 c-82 0 -100 3 -100 15 0 8 -7 15 -15 15 -13 0 -15 55
-15 433 0 239 3 437 7 440 3 4 183 7 399 7 339 0 393 -2 398 -15z m876 0 c0
-8 7 -15 15 -15 12 0 15 -18 15 -100 l0 -100 -140 0 -140 0 0 -335 0 -335
-105 0 c-89 0 -104 2 -99 15 5 12 24 15 85 15 l79 0 2 338 3 337 143 3 142 3
0 74 0 75 -197 1 c-260 1 -352 1 -445 0 l-78 -1 0 -75 0 -75 135 0 135 0 0
-340 c0 -296 -2 -340 -15 -340 -13 0 -15 42 -15 320 l0 320 -120 0 c-159 0
-160 1 -160 132 l0 98 380 0 c331 0 380 -2 380 -15z m930 0 c0 -8 7 -15 15
-15 12 0 15 -18 15 -100 l0 -100 -299 0 -299 0 -4 -50 c-3 -50 -3 -50 27 -50
17 -1 111 0 209 0 l179 1 94 -97 93 -97 0 -93 0 -94 -87 -95 -88 -94 -307 -1
c-372 0 -348 -9 -348 126 l0 91 68 6 c37 4 172 7 300 7 l232 0 0 55 0 55 -207
0 -208 0 -97 100 -98 101 0 79 0 79 55 65 c30 35 74 80 97 100 l42 36 308 0
c267 0 308 -2 308 -15z"/>
<path d="M6980 7593 c-12 -5 -121 -75 -139 -89 -6 -5 21 -94 30 -100 5 -3 28
6 52 20 24 15 47 26 50 26 4 0 7 -76 7 -170 l0 -170 65 0 c45 0 65 4 66 13 3
59 -3 462 -7 469 -6 9 -100 10 -124 1z"/>
<path d="M4336 4178 l-76 -81 0 -74 0 -75 81 -89 82 -89 206 0 c113 0 211 -4
218 -8 18 -11 21 -146 4 -166 -12 -14 -49 -16 -302 -16 l-289 0 0 -75 0 -75
303 0 303 0 50 53 c112 116 114 120 114 200 l0 72 -78 83 -77 82 -214 2 c-255
1 -254 1 -245 95 3 32 7 64 9 70 3 10 76 13 302 15 l298 3 3 78 3 77 -310 0
-309 0 -76 -82z"/>
<path d="M2400 3937 l0 -322 86 -92 86 -93 202 0 201 0 93 93 92 93 -2 319 -3
320 -75 0 -75 0 -3 -308 c-2 -263 -5 -312 -18 -333 l-16 -24 -188 0 c-168 0
-189 2 -203 18 -15 16 -17 55 -17 334 l0 316 -80 1 -80 1 0 -323z"/>
<path d="M3327 4253 c-4 -3 -7 -190 -7 -415 l0 -408 80 0 c44 0 80 1 81 3 0 1
3 121 6 267 3 146 6 266 8 268 3 3 149 -163 327 -372 75 -89 146 -163 158
-166 11 -3 43 -3 71 -2 l49 4 -2 411 -3 412 -74 3 c-47 2 -77 -1 -81 -8 -4 -6
-5 -126 -3 -266 2 -151 0 -254 -6 -254 -5 0 -91 96 -192 213 -101 116 -206
236 -233 265 -49 52 -49 52 -111 52 -34 0 -65 -3 -68 -7z"/>
<path d="M5190 3845 l0 -415 380 0 380 0 0 75 0 75 -300 0 -300 0 0 95 0 95
195 0 195 0 0 75 0 75 -195 0 -195 0 0 90 0 90 298 2 297 3 0 75 0 75 -377 3
-378 2 0 -415z"/>
<path d="M6153 4253 l-53 -4 0 -410 0 -409 80 0 80 0 2 272 3 271 103 -114
c57 -63 163 -185 235 -271 l132 -158 68 0 67 0 0 415 0 415 -80 0 -80 0 -2
-270 -3 -271 -130 153 c-266 311 -336 388 -353 386 -9 -1 -41 -3 -69 -5z"/>
<path d="M7027 4253 c-2 -5 -2 -41 1 -80 l4 -73 134 0 134 0 0 -335 0 -335 80
0 80 0 2 333 3 332 143 3 142 3 0 79 0 80 -359 0 c-198 0 -362 -3 -364 -7z"/>
<path d="M2404 3211 c-2 -2 -4 -190 -4 -418 l0 -413 289 0 289 0 91 98 91 97
0 217 0 216 -93 103 -93 102 -283 1 c-155 1 -285 -1 -287 -3z m566 -184 l30
-32 0 -201 c0 -189 -1 -203 -21 -228 l-20 -26 -200 0 -199 0 0 253 c0 140 3
256 6 260 4 3 89 6 190 6 l185 -1 29 -31z"/>
<path d="M2599 2943 c-2 -203 0 -355 5 -361 11 -11 340 -1 354 11 18 14 9 391
-9 413 -9 11 -48 14 -180 14 l-169 0 -1 -77z"/>
<path d="M3488 3213 l-168 -3 0 -416 0 -415 82 3 82 3 -3 158 -2 157 93 0 93
-1 118 -159 117 -160 95 0 c52 0 95 2 95 4 0 2 -47 68 -105 145 -58 77 -105
143 -105 146 0 2 15 11 33 19 17 8 64 47 104 87 l72 74 4 89 4 89 -80 89 c-44
48 -80 88 -81 89 -6 3 -317 5 -448 2z m421 -170 c18 -15 23 -31 26 -85 5 -101
11 -99 -241 -96 l-209 3 -3 84 c-2 46 -1 90 2 98 4 10 48 13 205 13 174 0 201
-2 220 -17z"/>
<path d="M3520 2960 l0 -60 98 -1 c94 -1 152 -1 240 0 l42 1 0 60 0 60 -190 0
-190 0 0 -60z"/>
<path d="M4565 3210 l-120 -5 -95 -98 -95 -98 -1 -315 -1 -314 79 0 78 0 1 68
c1 37 2 72 4 77 1 6 3 29 3 53 l2 42 219 0 218 0 7 -52 c3 -29 6 -84 6 -121
l0 -68 78 3 77 3 3 301 3 300 -30 37 c-16 21 -61 72 -101 114 l-72 76 -71 1
c-40 1 -126 -1 -192 -4z m264 -195 l41 -45 0 -95 0 -95 -230 0 -230 0 0 91 0
91 41 49 41 49 148 0 147 0 42 -45z"/>
<path d="M4481 2985 c-28 -33 -31 -42 -31 -105 l0 -70 190 0 190 0 0 78 c-1
67 -4 81 -25 105 -24 27 -24 27 -158 27 l-135 0 -31 -35z"/>
<path d="M5190 2795 l0 -415 80 0 80 0 0 170 0 170 195 0 195 0 0 75 0 75
-195 0 -195 0 0 95 0 95 300 0 300 0 0 75 0 75 -380 0 -380 0 0 -415z"/>
<path d="M7264 3212 l-120 -3 -77 -84 -77 -84 0 -73 0 -73 86 -87 85 -88 209
0 c239 0 227 5 229 -92 2 -92 15 -88 -320 -88 l-290 0 3 -77 3 -78 296 -3 295
-2 87 89 87 88 0 80 0 80 -82 81 -83 82 -207 0 c-241 0 -238 -1 -238 88 0 31
5 64 10 72 8 13 56 16 302 20 l293 5 3 73 c2 53 0 72 -10 73 -35 3 -377 4
-484 1z"/>
</g>
</svg>